<?xml version="1.0" standalone="no"?>
<!DOCTYPE svg PUBLIC "-//W3C//DTD SVG 20010904//EN"
 "http://www.w3.org/TR/2001/REC-SVG-20010904/DTD/svg10.dtd">
<svg version="1.0" xmlns="http://www.w3.org/2000/svg"
 width="980.000000pt" height="870.000000pt" viewBox="0 0 980.000000 870.000000"
 preserveAspectRatio="xMidYMid meet">

<g transform="translate(0.000000,870.000000) scale(0.100000,-0.100000)"
fill="#000000" stroke="none">
<path d="M2488 6497 c-2270 -2000 -2486 -2193 -2476 -2211 19 -36 109 -124
157 -156 78 -49 155 -72 251 -73 152 -1 308 59 471 183 48 36 988 827 2089
1759 l2002 1693 36 -34 c21 -19 865 -777 1877 -1684 1163 -1042 1869 -1668
1919 -1701 353 -234 682 -255 893 -59 32 30 66 67 75 84 l17 29 -2405 2179
c-1323 1198 -2409 2180 -2412 2181 -4 1 -1126 -985 -2494 -2190z"/>
<path d="M7680 7115 l0 -584 463 -392 c254 -216 470 -399 480 -407 16 -14 17
33 17 976 l0 992 -480 0 -480 0 0 -585z"/>
<path d="M3140 5537 l-1805 -1514 -3 -1909 c-2 -2066 -5 -1970 50 -2039 12
-15 40 -36 62 -46 39 -18 96 -19 1304 -19 l1262 0 0 1048 c0 1148 -2 1118 59
1206 17 25 51 54 83 71 l53 30 575 3 c626 4 671 1 757 -48 60 -35 97 -79 124
-150 19 -50 20 -84 19 -1101 l0 -1049 1238 0 c1395 0 1299 -5 1371 76 76 87
71 -66 71 2042 l0 1881 -127 115 c-453 406 -3279 2916 -3283 2916 -3 0 -817
-681 -1810 -1513z"/>
</g>
</svg>
