<?xml version="1.0" standalone="no"?>
<!DOCTYPE svg PUBLIC "-//W3C//DTD SVG 20010904//EN"
 "http://www.w3.org/TR/2001/REC-SVG-20010904/DTD/svg10.dtd">
<svg version="1.0" xmlns="http://www.w3.org/2000/svg"
 width="980.000000pt" height="736.000000pt" viewBox="0 0 980.000000 736.000000"
 preserveAspectRatio="xMidYMid meet">

<g transform="translate(0.000000,736.000000) scale(0.100000,-0.100000)"
fill="#000000" stroke="none">
<path d="M495 7325 c-178 -73 -415 -316 -475 -487 -18 -52 -20 -83 -20 -318
l0 -260 143 -113 c477 -380 1312 -1031 2207 -1722 305 -236 844 -653 1197
-927 731 -567 842 -650 968 -713 199 -101 329 -101 527 2 144 74 193 111 1000
749 560 443 2224 1743 3581 2798 l177 138 0 152 c0 125 -4 163 -19 209 -29 82
-102 190 -195 286 -93 96 -175 157 -267 201 l-64 30 -4350 0 -4350 0 -60 -25z"/>
<path d="M9045 5132 c-701 -546 -1705 -1330 -2262 -1767 l-241 -190 41 -37
c23 -20 751 -668 1617 -1441 l1575 -1405 13 41 c9 33 12 596 10 2712 l-3 2671
-750 -584z"/>
<path d="M0 2942 c0 -1410 4 -2563 9 -2566 8 -5 3084 2695 3088 2711 1 5 -30
33 -70 64 -1608 1242 -2162 1672 -2672 2074 -154 121 -297 233 -317 249 l-38
28 0 -2560z"/>
<path d="M5874 2649 c-592 -462 -921 -600 -1260 -530 -104 21 -244 74 -354
133 -110 59 -365 230 -523 351 l-139 105 -1506 -1325 c-829 -729 -1520 -1338
-1537 -1354 l-30 -29 4323 0 c2377 0 4322 3 4321 8 0 5 -2864 2563 -3067 2739
l-48 41 -180 -139z"/>
</g>
</svg>
