<?xml version="1.0" standalone="no"?>
<!DOCTYPE svg PUBLIC "-//W3C//DTD SVG 20010904//EN"
 "http://www.w3.org/TR/2001/REC-SVG-20010904/DTD/svg10.dtd">
<svg version="1.0" xmlns="http://www.w3.org/2000/svg"
 width="980.000000pt" height="980.000000pt" viewBox="0 0 980.000000 980.000000"
 preserveAspectRatio="xMidYMid meet">

<g transform="translate(0.000000,980.000000) scale(0.100000,-0.100000)"
fill="#000000" stroke="none">
<path d="M4900 9497 l0 -307 33 0 c98 0 392 -23 525 -40 806 -106 1556 -436
2192 -963 114 -95 372 -349 479 -472 585 -671 946 -1499 1035 -2377 8 -78 18
-209 22 -290 l6 -148 304 0 304 0 0 73 c0 132 -20 390 -45 579 -173 1300 -858
2469 -1917 3268 -793 599 -1749 937 -2760 976 l-178 7 0 -306z"/>
<path d="M1415 9119 c-153 -22 -338 -94 -467 -180 -38 -25 -210 -189 -429
-408 -362 -361 -367 -367 -407 -451 -22 -47 -56 -136 -76 -197 -35 -109 -36
-118 -36 -265 0 -181 15 -463 35 -678 160 -1664 864 -3242 1992 -4465 1415
-1534 3369 -2418 5463 -2471 265 -7 273 -6 455 53 184 60 185 60 583 456 391
389 446 456 512 615 76 181 109 424 81 597 -16 99 -91 320 -137 404 -138 252
-416 497 -661 582 -32 11 -339 96 -683 190 -429 117 -653 174 -717 181 -172
20 -405 -19 -588 -98 -158 -68 -221 -117 -487 -382 l-247 -245 -98 28 c-432
122 -918 354 -1315 628 -862 596 -1510 1487 -1798 2475 l-33 112 259 263 c219
221 266 274 304 341 90 161 141 320 162 507 20 183 12 227 -186 955 -153 561
-184 663 -226 750 -109 226 -319 446 -540 567 -79 43 -311 122 -400 137 -76
12 -229 11 -315 -1z"/>
<path d="M4900 7657 l0 -304 123 -7 c479 -26 914 -179 1302 -457 524 -375 880
-944 990 -1584 9 -49 21 -161 27 -247 l12 -158 305 0 304 0 -7 148 c-64 1432
-1136 2640 -2546 2871 -162 27 -310 41 -421 41 l-89 0 0 -303z"/>
<path d="M4900 5815 l0 -305 38 0 c63 0 190 -37 261 -77 84 -47 187 -150 234
-234 40 -71 77 -198 77 -261 l0 -38 307 0 306 0 -6 103 c-27 469 -365 903
-823 1056 -107 36 -243 61 -330 61 l-64 0 0 -305z"/>
</g>
</svg>
