<?xml version="1.0" standalone="no"?>
<!DOCTYPE svg PUBLIC "-//W3C//DTD SVG 20010904//EN"
 "http://www.w3.org/TR/2001/REC-SVG-20010904/DTD/svg10.dtd">
<svg version="1.0" xmlns="http://www.w3.org/2000/svg"
 width="1200.000000pt" height="1200.000000pt" viewBox="0 0 1200.000000 1200.000000"
 preserveAspectRatio="xMidYMid meet">

<g transform="translate(0.000000,1200.000000) scale(0.100000,-0.100000)"
fill="#000000" stroke="none">
<path d="M5700 11650 c-1411 -76 -2716 -632 -3738 -1592 -551 -517 -1010
-1169 -1311 -1860 -52 -122 -173 -442 -185 -490 l-6 -28 408 0 409 0 58 143
c32 78 101 226 153 330 l94 187 789 0 c654 0 789 -2 789 -13 0 -8 -8 -38 -19
-68 -23 -67 -104 -374 -130 -491 l-19 -88 402 0 401 0 30 117 c16 65 61 212
100 328 l70 210 763 3 762 2 0 -330 0 -330 390 0 390 0 0 330 0 330 822 -2
823 -3 38 -95 c42 -106 122 -339 162 -472 l26 -88 400 0 399 0 -6 28 c-29 124
-149 534 -181 618 -4 12 110 14 818 12 l824 -3 95 -190 c52 -104 120 -252 150
-327 l55 -138 408 0 c243 0 407 4 407 9 0 21 -97 285 -157 431 -451 1083
-1240 2008 -2253 2643 -783 490 -1686 791 -2620 871 -226 20 -600 27 -810 16z
m1620 -940 c740 -194 1442 -561 2020 -1056 126 -108 379 -357 479 -471 l63
-73 -719 0 -719 0 -23 48 c-43 89 -184 327 -279 472 -116 178 -255 366 -393
530 -102 123 -397 427 -512 528 -32 29 -53 52 -45 52 7 0 65 -14 128 -30z
m-2866 -173 c-371 -380 -669 -799 -911 -1279 l-74 -148 -669 0 c-369 0 -670 2
-670 5 0 23 375 402 527 532 521 448 1118 781 1788 994 83 26 152 48 154 48 2
1 -63 -68 -145 -152z m1066 -767 l0 -660 -581 0 -581 0 32 58 c57 101 199 313
300 447 166 222 329 400 525 574 96 86 290 241 301 241 2 0 4 -297 4 -660z
m910 574 c375 -281 713 -640 1002 -1064 35 -52 75 -112 87 -132 l23 -38 -621
0 -621 0 0 660 c0 363 4 660 8 660 4 0 59 -39 122 -86z"/>
<path d="M568 6915 c-25 -8 -68 -35 -95 -59 l-48 -44 1 -78 c0 -76 8 -100 213
-689 270 -775 277 -793 318 -849 69 -95 168 -132 328 -124 158 9 242 62 304
191 21 45 123 321 226 612 104 292 191 533 194 537 3 4 84 -217 180 -490 258
-737 266 -753 389 -814 65 -32 70 -33 192 -33 107 0 132 3 171 21 66 31 123
86 152 147 14 30 132 359 263 733 229 656 237 682 238 758 l1 78 -46 42 c-28
25 -68 49 -99 59 -60 20 -161 22 -226 6 -65 -17 -135 -83 -162 -154 -12 -31
-87 -284 -168 -563 -80 -279 -149 -511 -153 -515 -4 -4 -72 180 -151 410 -200
584 -232 666 -288 725 -69 74 -133 100 -256 106 -128 6 -209 -13 -286 -66 -48
-34 -61 -50 -102 -133 -26 -54 -116 -297 -210 -571 -89 -263 -165 -478 -168
-478 -3 0 -70 226 -149 503 -79 276 -153 525 -163 552 -32 82 -77 144 -122
167 -54 28 -209 35 -278 13z"/>
<path d="M4543 6911 c-73 -25 -118 -63 -139 -116 -15 -40 -15 -53 -4 -103 18
-80 464 -1364 500 -1437 59 -123 143 -175 295 -183 148 -8 243 24 317 106 48
53 95 172 299 749 96 271 177 489 180 485 3 -4 90 -246 192 -539 103 -292 202
-564 220 -605 61 -133 148 -188 310 -196 175 -8 291 44 349 158 36 70 494
1385 510 1463 10 48 10 65 -2 99 -52 148 -350 189 -474 64 -52 -51 -60 -74
-246 -724 -73 -254 -135 -461 -136 -459 -2 1 -77 216 -167 477 -208 602 -216
621 -283 687 -75 74 -153 97 -304 91 -97 -4 -115 -8 -173 -36 -79 -39 -120
-84 -163 -177 -17 -38 -107 -288 -198 -554 -91 -267 -167 -486 -169 -487 -2
-2 -70 230 -151 514 -150 522 -190 634 -241 685 -56 55 -217 75 -322 38z"/>
<path d="M8520 6914 c-56 -20 -106 -57 -131 -98 -39 -61 -29 -99 219 -811 126
-363 240 -685 251 -717 61 -159 174 -225 371 -216 161 8 245 59 310 188 21 42
123 315 225 606 103 291 190 535 194 542 4 7 84 -205 185 -495 98 -279 197
-553 220 -608 48 -115 89 -163 175 -204 51 -24 67 -26 181 -26 110 0 131 3
177 24 76 34 134 101 171 196 36 96 448 1279 469 1350 34 112 14 186 -63 235
-61 38 -130 53 -222 48 -126 -8 -199 -60 -241 -173 -12 -31 -88 -288 -169
-571 l-149 -516 -16 44 c-9 24 -83 237 -165 473 -201 578 -217 616 -287 669
-67 51 -122 69 -230 74 -216 10 -328 -55 -404 -234 -21 -49 -109 -299 -197
-556 -87 -256 -162 -461 -165 -455 -4 7 -73 243 -153 525 -181 634 -201 678
-321 711 -57 16 -182 13 -235 -5z"/>
<path d="M434 4403 c64 -213 149 -439 242 -651 207 -468 502 -936 852 -1352
138 -164 524 -548 682 -679 251 -209 496 -383 760 -542 1718 -1031 3875 -1113
5671 -214 1361 680 2389 1847 2872 3260 24 72 48 145 51 163 l8 32 -407 0
c-377 0 -406 -1 -412 -17 -37 -109 -130 -330 -193 -460 l-79 -163 -830 0 -830
0 20 58 c31 90 97 320 125 439 14 59 28 116 30 126 5 16 -18 17 -390 17 l-395
0 -11 -42 c-26 -104 -102 -353 -143 -468 l-44 -125 -856 -3 -857 -2 0 320 0
320 -390 0 -390 0 0 -320 0 -320 -783 0 -784 0 -48 157 c-27 87 -67 230 -90
318 l-42 160 -397 3 c-218 1 -396 1 -396 -2 0 -22 90 -391 134 -548 l24 -88
-809 0 -809 0 -64 133 c-64 132 -142 314 -188 437 l-24 65 -408 3 c-385 2
-407 1 -402 -15z m2993 -1423 c6 -14 57 -118 111 -231 249 -518 523 -918 886
-1296 137 -142 144 -138 -96 -56 -730 249 -1374 650 -1919 1193 -165 164 -369
392 -369 411 0 5 301 8 687 7 l687 -3 13 -25z m2093 -696 l0 -725 -76 53
c-425 296 -788 715 -1093 1260 -39 70 -71 130 -71 133 0 3 279 5 620 5 l620 0
0 -726z m2100 717 c0 -19 -261 -399 -352 -512 -259 -325 -570 -618 -876 -827
l-92 -63 0 705 0 706 660 0 c401 0 660 -4 660 -9z m2344 -3 c-51 -87 -427
-477 -619 -643 -500 -433 -1067 -756 -1695 -965 -202 -68 -474 -144 -493 -137
-5 1 33 38 84 82 136 114 428 410 548 555 247 296 471 629 642 957 34 65 68
128 76 141 l13 22 726 0 c577 0 724 -3 718 -12z"/>
</g>
</svg>
